<?xml version="1.0" encoding="UTF-8" standalone="no"?>
<svg
  xmlns:svg="http://www.w3.org/2000/svg"
  xmlns="http://www.w3.org/2000/svg"
  version="1.0"
  width="6450"
  height="5850"
>
  <style>
    [href="#heart"] {
      transform-origin: 50% 50%;
    }
  </style>
  <defs>
    <linearGradient id="rainbow-gradient" x1="0" x2="0" y1="0" y2="1">
      <stop stop-color="hsl(0, 100%, 65%)" offset="14.2857142857%" />
      <stop stop-color="hsl(23, 100%, 65%)" offset="0" />
      <stop stop-color="hsl(23, 100%, 65%)" offset="28.5714285714%" />
      <stop stop-color="hsl(60, 100%, 65%)" offset="0" />
      <stop stop-color="hsl(60, 100%, 65%)" offset="42.8571428571%" />
      <stop stop-color="hsl(120, 100%, 60%)" offset="0" />
      <stop stop-color="hsl(120, 100%, 60%)" offset="57.1428571429%" />
      <stop stop-color="hsl(240, 100%, 75%)" offset="0" />
      <stop stop-color="hsl(240, 100%, 75%)" offset="71.4285714286%" />
      <stop stop-color="hsl(275, 100%, 60%)" offset="0" />
      <stop stop-color="hsl(275, 100%, 60%)" offset="85.7142857143%" />
      <stop stop-color="hsl(281, 100%, 85%)" offset="0" />
      <stop stop-color="hsl(281, 100%, 85%)" offset="100%" />
    </linearGradient>
    <g id="heart">
      <path
        d="M 297.29747,550.86823 C 283.52243,535.43191 249.1268,505.33855 220.86277,483.99412 C 137.11867,420.75228 125.72108,411.5999 91.719238,380.29088 C 29.03471,322.57071 2.413622,264.58086 2.5048478,185.95124 C 2.5493594,147.56739 5.1656152,132.77929 15.914734,110.15398 C 34.151433,71.768267 61.014996,43.244667 95.360052,25.799457 C 119.68545,13.443675 131.6827,7.9542046 172.30448,7.7296236 C 214.79777,7.4947896 223.74311,12.449347 248.73919,26.181459 C 279.1637,42.895777 310.47909,78.617167 316.95242,103.99205 L 320.95052,119.66445 L 330.81015,98.079942 C 386.52632,-23.892986 564.40851,-22.06811 626.31244,101.11153 C 645.95011,140.18758 648.10608,223.6247 630.69256,270.6244 C 607.97729,331.93377 565.31255,378.67493 466.68622,450.30098 C 402.0054,497.27462 328.80148,568.34684 323.70555,578.32901 C 317.79007,589.91654 323.42339,580.14491 297.29747,550.86823 z"
        fill="url(#rainbow-gradient)"
      />
    </g>
  </defs>

  <use href="#heart" x="5500" y="2500" style="transform: rotate(0deg)" />
  <use href="#heart" x="500" y="2000" style="transform: rotate(350deg)" />
  <use href="#heart" x="1750" y="200" style="transform: rotate(30deg)" />
  <use href="#heart" x="1000" y="500" style="transform: rotate(0deg)" />
  <use href="#heart" x="3200" y="1000" style="transform: rotate(340deg)" />
  <use href="#heart" x="5500" y="3500" style="transform: rotate(15deg)" />
  <use href="#heart" x="3500" y="5500" style="transform: rotate(10deg)" />
  <use href="#heart" x="500" y="5500" style="transform: rotate(10deg)" />
  <use href="#heart" x="750" y="3500" style="transform: rotate(345deg)" />
  <use href="#heart" x="5000" y="750" style="transform: rotate(5deg)" />
</svg>
